<?xml version="1.0" encoding="UTF-8"?>
<svg width="79px" height="63px" viewBox="0 0 79 63" version="1.1" xmlns="http://www.w3.org/2000/svg" xmlns:xlink="http://www.w3.org/1999/xlink">
    <!-- Generator: Sketch 53.2 (72643) - https://sketchapp.com -->
    <title>Fill 1</title>
    <desc>Created with Sketch.</desc>
    <g id="photos" stroke="none" stroke-width="1" fill="none" fill-rule="evenodd">
        <g id="Artboard-Copy-7" transform="translate(-562.000000, -161.000000)" fill="#FFFFFF">
            <g id="Group-2" transform="translate(562.000000, 161.000000)">
                <path d="M67.965326,35.1975813 C67.965326,35.1975813 67.0226702,49.3486119 46.6682171,51 C46.6682171,51 50.2016702,42.9280644 47.2570202,32.8809817 C43.4936897,17.6695862 29,15.3113915 29,15.3113915 C29,15.3113915 35.2850062,10.586621 46.3736569,11.0292676 C46.3736569,11.0292676 69.0037376,11.2353807 67.965326,35.1975813 M33.0346139,54.9692301 C27.7799942,54.7042221 22.6805982,50.2262735 20.8113024,48.1408976 C20.8113024,48.1408976 28.3394921,45.7580127 28.9692026,45.4455032 C29.5989132,45.1329937 29.4726562,44.550476 29.4726562,44.550476 C29.344825,41.984148 27.5816354,39.0178079 24.3704264,36.1814717 C24.0659614,35.8298985 23.5757317,35.7117699 23.2130184,36.0033412 L17.3195573,40.7578607 C15.4304257,23.8823479 22.5341904,24.0154769 22.5341904,24.0154769 C27.1458757,23.7464063 32.2997417,26.9771294 36.2332287,34.381417 C36.2332287,34.381417 38.6799691,39.0599966 38.9510595,43.7720148 C39.6292577,56.1570787 33.0346139,54.9692301 33.0346139,54.9692301 M70.6047147,9.46205241 C55.3689886,-5.38270502 33.0654816,1.67822469 33.0654816,1.67822469 C0.156852659,10.2644379 9.18936987,45.3134122 9.18936987,45.3134122 L0,52.4582106 L11.5352582,49.8585942 C11.5352582,49.8585942 23.6847515,69.0976953 54.528572,61.0187624 C84.93446,54.0085295 82.8398495,22.1259111 70.6047147,9.46205241" id="Fill-1"></path>
            </g>
        </g>
    </g>
</svg>