<?xml version="1.0" encoding="utf-8"?>
<!-- Generator: Adobe Illustrator 22.1.0, SVG Export Plug-In . SVG Version: 6.00 Build 0)  -->
<svg version="1.1" id="Layer_1" xmlns="http://www.w3.org/2000/svg" xmlns:xlink="http://www.w3.org/1999/xlink" x="0px" y="0px"
	 viewBox="0 0 530 516" style="enable-background:new 0 0 530 516;" xml:space="preserve">
<style type="text/css">
	.st0{fill:#FFE01C;}
</style>
<g>
	<path d="M80,364.6C90.8,348.2,91.9,331,91.9,331c0.9-50.1-53.8-56.6-76.3-52.9c-22.5,3.7-11.7,34.6-8,57.6s7,96.9,9.8,111.4
		c2.8,14.5,16.9,12.2,16.9,12.2l105.5-5.3l-32.2,23.9c0,0-2.8,4.2,2.8,3.7l54-17.7c65.1,78.6,185.9,16.4,197.1,10.8
		c5,33.1,20.1,38.9,44.9,38.9c63-5.7,54.3-133,54.3-133s-2-23-5.3-33.3c-1.4-2.8,0.9-8,8-4.2c6.1,3.3,11.2,5.1,11.2,5.1
		c22.5,9.8,29,12.6,36,11.7c11.7-2.3,8.4-23.9,8.4-23.9l-8.2-43.6c0,0,22.7-5.6,14.5-36c-8-21.5-16.4-18.7-16.4-18.7
		s-14.5,0.9-21.1,9.4c0,1.4-2.8,3.3-0.9,8.9c0,0,4.5,10.3-0.7,10.8c-5.1,0.5-21.8-3.8-21.8-3.8c10.4-12.4,13.6-34.1,13.6-34.1
		c8.9-53.4-27.6-71.6-27.6-71.6c-15.5-25-31.9-32.4-48.3-32.6c3.9-8.1,7.5-19.5,10.4-32.8c3.3-15.3,3.5-30,0.6-43.5
		c-2.6-12.5-8-23.7-15.8-34c-6.1-6.1-8-7.5-12.8-10.1c-5.3-2.6-11.3-3-16.9-1.1c-5.6,1.9-10.1,5.8-12.7,11.1
		c-5.3,10.9-0.7,23.2,10.3,28.5c3.1,1.5,6.4,2.3,9.8,2.3c2.4,0,4.6-0.5,6.8-1.6c7.7-3.7,11.2-8.9,11.2-8.9c3.5,6.5,5,8.5,6.6,15.7
		c2.6,12.2,2.9,25.5,0,39.5c-3.5,16.5-10.5,30.2-14.3,37.3c-10.8,3.5-18.1,9.4-28.6,10.8c-5.8,0.8-9.8,0.2-15.6-1.2
		c-1.4-0.5-1.2-2.3-1.1-3.6c0.1-0.9,1.4-23.3-6.5-48.5c-4.7-15-11.7-27.8-20.9-38.2c-9-10.2-20.1-18-33.1-23.3
		c-0.5-0.6-1.1-1.1-1.7-1.6c-4.5-4-10.3-5.9-16.3-5.6c-6,0.4-11.5,3-15.5,7.5c-4,4.5-6,10.3-5.7,16.2c0.4,6,3.1,11.5,7.6,15.4
		c4.2,3.6,9.4,5.6,14.9,5.6c0.5,0,0.9,0,1.4,0c6-0.4,11.6-2.9,15.6-7.3c4-4.5,5.2-13.4,5.1-13.6c7.6,4.3,10.5,6.2,16.3,12.7
		c8.3,9.3,14.7,21,19,34.6c7.5,23.6,6.2,45.1,6.2,45.4c0,0-0.5-0.4-1.8-0.6c-17.2-3.7-26.2-0.9-39.3,8.4
		c-20,19.2-15.4,40.8-15.4,40.8c-4.4,5.4-32.1,9.1-41.4,10.1c-9.4,0.9-11.7,6.6-10.8,22c5.1,24.8,14,55.7,24.8,70.2
		c-15.9,3.3-53.4,10.8-78.2,54.3c-24.8,43.5-14,94.1-14,94.1l-65.5,3.7c5-11.8,5.4-28.2-2-37.1C77.2,391.3,69.2,381,80,364.6z
		 M273.5,202.7c3,7.7,7.7,8.7,8,10.8c-1.8,34.4,16.6,55.5,16.6,55.5c1.9,1.9,4,10.1-5.4,11.9s-32.3-22.5-42.6-64.1
		C250.1,216.8,246.2,207.8,273.5,202.7z M492.4,324.8c-7.5-3.3-29-13.1-29-13.1s-1.4-20.6-6.6-30c11.7,6.1,23.7,11.5,33.9,12.6"/>
	<path class="st0" d="M427.4,323.4c-0.5-6.6,1.4-10.8,5.6-14c4.2-3.3,9.8-2.3,9.8-2.3s1.4-7-3.7-12.6
		c-47.5,33.1-105.6,8.1-105.6,8.1c20,12.1,28.9,35,28.9,35S380.5,303.3,427.4,323.4z"/>
	<path class="st0" d="M280,478.8c0,0,22-49.6,8.9-93.2c-18.7-59.9-79.5-61.7-79.5-61.7s16.3-25.4,74.9-17.8c0,0,46.6,18.2,56,85.6
		c2.3,55.7-12.1,71.6-12.1,71.6S312.7,475,280,478.8z"/>
	<path class="st0" d="M199.8,409.4c-1.1-1.3-4.3-1-5.6,0.1c0,0-23.4,20.5-24.1,18.7c-5.7-15.2-4.7-39.2-3.8-46.4
		c1-7.8,1-17.6,17.6-18.6c16.6-1,44.4,12.7,58.6,39.6c13.8,26.3,3,57.3-8.9,78.3c-0.5,0.9-1.5,1.5-2.6,1.5
		c-18.9-1-37.5-18.7-44.3-26.3c1.9-0.9,26.7-10.8,26.7-10.8s3.3-1.9,3.3-5.1C216.2,431.1,211.4,419.7,199.8,409.4z"/>
	<path class="st0" d="M45.1,431.7c1.4-11.7-1.4-30.6-1.9-40.7s-2-19.9-3.1-28c-1.1-8.1-9.1-63.3-9.1-63.3c-10.3,0.8-10.4,2.9-7.9,15
		c5.2,22.5,6.6,51.2,8.1,61.7c1.1,8.5,3.6,47.4,3.7,53.7c0,0-0.1,3.4,2.6,3.5c2.7,0.1,7.5,0.3,7.5,0.3L45.1,431.7z"/>
	<path class="st0" d="M303.8,222.2c10.2,3,30.9,6.7,48.4-16.3c0,0,10.3,27.6,47.6,28.7c52.9-1.9,51.7-51.2,51.7-51.2
		s13.6,11.8,13.1,35.3c0,8.3-4.6,29.9-14.8,40.1l-16.2-4c5.5-8.3,5.5-12.9,5.5-15.2s-2.4-5.7-3.7-5.1c-8,16.8-23.5,26.1-36.2,29.9
		c-0.4,1.3-1.8,4.7,2.8,5.6c14.1,0.9,22.6-4.2,22.6-4.2s5,0.9,13.5,4.7c-14.3,18-39.7,21.3-60,20c-75-5.1-79.4-61.4-79.4-61.4
		S295.9,219.4,303.8,222.2z"/>
	<path class="st0" d="M211.3,446.7"/>
	<path class="st0" d="M344.4,177.4c0-0.2,0-2,0-2.1c0-17.6-13.1-28.3-29.2-28.3c-16.1,0-29.2,13.1-29.2,30.7c0,0.5,0,0.1,0,0.6
		C317.7,173.1,337,175.8,344.4,177.4z"/>
	<path class="st0" d="M325,183.9c0.1,2.1,0.1,1.9,0.1,3.2c-0.5,6.2-2.7,11.8-14.5,11.4c-7,0.1-12.5-5.2-13.4-11.3
		c0-0.3-0.5-0.7-0.4-1.8c-3.5,0.4-6.6,0.5-10.1,1.2c2.9,15,14.6,23.5,28.5,23.5c14.2,0,26-9,28.7-24.4
		C340.8,184.9,336.2,184,325,183.9z"/>
	<path class="st0" d="M307.6,191.6c0,1.8,1.9,3.2,4,3.2c2.2,0,3.9-1.5,3.9-3.3c0-1.8-1.9-3.2-4-3.2
		C309.3,188.4,307.5,189.8,307.6,191.6z"/>
	<path class="st0" d="M395.3,195c-0.2,1.5,1.5,3,3.7,3.2s4.1-0.8,4.2-2.4c0.2-1.5-1.5-3-3.7-3.2C397.3,192.4,395.4,193.4,395.3,195z
		"/>
	<path class="st0" d="M387,175.4c13.2,0,31.8,1.3,49.2,7.7c0.1-1,0.1-1.2,0.1-2.3c0-20.8-17.1-37.2-38.2-37.2
		c-20.2,0-36.7,14.2-38.1,33.8C363.1,176.9,373.4,175.4,387,175.4z"/>
	<path class="st0" d="M417,188.5c0.1,0.9-0.3,1.8-0.5,2.4c-1.8,9.3-8.2,11.9-17.2,11.2c-7.3-0.6-13.7-4.9-12.6-14
		c0.1-1,0-1.3,0.2-2.2c-17.6-0.4-26.4,2.1-26.6,2.1c-0.1,0-0.2-0.4-0.2-0.4c1.7,20.2,18.1,33.5,38,33.5c17.9,0,33-9.8,37.1-27.1
		C429,191.5,423.4,189.7,417,188.5z"/>
	
		<ellipse transform="matrix(0.9981 -6.106081e-02 6.106081e-02 0.9981 -1.8605 16.1564)" class="st0" cx="263.4" cy="38.5" rx="10.4" ry="10.3"/>
	
		<ellipse transform="matrix(0.4386 -0.8987 0.8987 0.4386 189.5474 350.4781)" class="st0" cx="375.3" cy="23.5" rx="10.5" ry="10.6"/>
	<path class="st0" d="M443.4,378c-3.5-33.8-25.6-43-41.7-41.4c-34.3,3.8-30,46.8-30,46.8c0,14.8,6.1,34.6,7.4,49.4
		c1.3,14.8-4.3,32.1,0.9,49.4c5.2,17.3,21.3,13.1,21.3,13.1C456,487.8,443.4,378,443.4,378z M406.9,483.7c-3.5,2.5-18.7,3-18.7-11
		c0-13.9,2.2-29.1-0.4-43.5c-0.4-2-0.8-4.3-1.2-6.7c16.7,2.6,38.7,0.2,48.3-1.1C433.2,446.8,425.7,472.9,406.9,483.7z M384.9,412.2
		c-2-13.8-3.4-29.8-1.1-39.8c1.7-9.7,6.5-23.2,20-24.5c0,0,22.6-0.8,27.8,26.2c2.1,9.1,3.6,21.8,3.6,35.5
		C421.5,412.7,393.3,412.4,384.9,412.2z"/>
</g>
</svg>
